<svg width="1848" height="960" viewBox="0 0 1848 960" fill="none" xmlns="http://www.w3.org/2000/svg">
<path opacity="0.0144928" d="M1892.28 776.35L2050.3 493.964C2053.26 488.677 2053.99 482.43 2052.34 476.589L1926.34 31.6348C1925.03 27.0296 1922.32 22.9389 1918.57 19.9339L1601.27 -234.629C1594.53 -240.04 1585.33 -241.251 1577.44 -237.766L1318.01 -123.187C1310.12 -119.702 1304.86 -112.107 1304.41 -103.514L1282.8 300.73C1282.54 305.502 1283.79 310.24 1286.37 314.283L1535.39 704.902C1538.66 710.031 1543.83 713.67 1549.77 715.027L1867.06 787.487C1877.04 789.765 1887.31 785.231 1892.28 776.35Z" stroke="url(#paint0_linear_17_39180)" stroke-width="4"/>
<path opacity="0.0289855" d="M1842.97 789.411L2014.88 517.844C2018.13 512.714 2019.2 506.503 2017.86 500.571L1916.66 53.7945C1915.6 49.1094 1913.09 44.8676 1909.49 41.6652L1608.31 -226.284C1601.86 -232.022 1592.75 -233.701 1584.7 -230.636L1321.15 -130.276C1313.1 -127.211 1307.46 -119.916 1306.54 -111.372L1263.46 287.667C1262.94 292.436 1263.94 297.252 1266.31 301.438L1492.48 700.628C1495.48 705.928 1500.47 709.834 1506.34 711.491L1817.28 799.196C1827.09 801.965 1837.54 797.986 1842.97 789.411Z" stroke="url(#paint1_linear_17_39180)" stroke-width="4"/>
<path opacity="0.0434783" d="M1793.57 800.905L1978.67 540.818C1982.19 535.861 1983.6 529.704 1982.57 523.698L1906.02 76.4434C1905.21 71.6915 1902.92 67.3091 1899.48 63.9164L1614.95 -216.452C1608.81 -222.499 1599.82 -224.64 1591.64 -222.002L1324.73 -135.976C1316.55 -133.338 1310.54 -126.361 1309.16 -117.89L1245.1 274.832C1244.33 279.585 1245.07 284.465 1247.23 288.784L1450.31 695.252C1453.04 700.71 1457.83 704.873 1463.62 706.826L1767.47 809.319C1777.1 812.568 1787.71 809.15 1793.57 800.905Z" stroke="url(#paint2_linear_17_39180)" stroke-width="4"/>
<path opacity="0.057971" d="M1744.17 810.843L1941.7 562.854C1945.5 558.086 1947.24 551.999 1946.53 545.937L1894.41 99.5271C1893.85 94.7212 1891.78 90.2093 1888.5 86.6341L1621.11 -205.167C1615.3 -211.508 1606.45 -214.103 1598.15 -211.897L1328.69 -140.275C1320.39 -138.069 1314.03 -131.43 1312.2 -123.057L1227.71 262.275C1226.67 266.996 1227.16 271.928 1229.09 276.369L1408.96 688.824C1411.4 694.426 1415.97 698.836 1421.67 701.081L1717.73 817.871C1727.15 821.588 1737.88 818.736 1744.17 810.843Z" stroke="url(#paint3_linear_17_39180)" stroke-width="4"/>
<path opacity="0.0724638" d="M1694.85 819.238L1904.06 583.921C1908.11 579.356 1910.18 573.359 1909.8 567.256L1881.79 122.989C1881.48 118.142 1879.65 113.513 1876.55 109.763L1626.71 -192.469C1621.24 -199.085 1612.55 -202.126 1604.16 -200.357L1332.93 -143.168C1324.54 -141.399 1317.85 -135.115 1315.57 -126.863L1211.25 250.044C1209.96 254.72 1210.18 259.689 1211.89 264.24L1368.46 681.398C1370.61 687.128 1374.96 691.774 1380.54 694.306L1668.14 824.868C1677.34 829.041 1688.16 826.759 1694.85 819.238Z" stroke="url(#paint4_linear_17_39180)" stroke-width="4"/>
<path opacity="0.0869565" d="M1645.69 826.11L1865.78 603.992C1870.09 599.645 1872.48 593.755 1872.42 587.629L1868.16 146.772C1868.11 141.899 1866.52 137.163 1863.6 133.248L1631.68 -178.401C1626.57 -185.275 1618.06 -188.751 1609.6 -187.422L1337.39 -144.653C1328.93 -143.324 1321.92 -137.411 1319.2 -129.305L1195.71 238.184C1194.16 242.801 1194.12 247.794 1195.59 252.443L1328.88 673.028C1330.73 678.872 1334.83 683.741 1340.29 686.555L1618.8 830.336C1627.74 834.95 1638.62 833.24 1645.69 826.11Z" stroke="url(#paint5_linear_17_39180)" stroke-width="4"/>
<path opacity="0.101449" d="M1596.78 831.484L1826.93 623.045C1831.48 618.928 1834.18 613.162 1834.45 607.032L1853.51 170.82C1853.72 165.934 1852.37 161.105 1849.65 157.034L1635.95 -163.009C1631.2 -170.123 1622.9 -174.023 1614.4 -173.136L1341.97 -144.732C1333.47 -143.846 1326.17 -138.319 1323.01 -130.382L1181.06 226.743C1179.26 231.285 1178.95 236.287 1180.18 241.022L1290.24 663.772C1291.79 669.713 1295.65 674.794 1300.96 677.884L1569.77 834.3C1578.43 839.342 1589.36 838.203 1596.78 831.484Z" stroke="url(#paint6_linear_17_39180)" stroke-width="4"/>
<path opacity="0.115942" d="M1548.19 835.387L1787.57 641.057C1792.34 637.184 1795.36 631.56 1795.96 625.442L1837.82 195.075C1838.3 190.191 1837.2 185.281 1834.68 181.064L1639.45 -146.346C1635.08 -153.679 1627.01 -157.991 1618.48 -157.548L1346.6 -143.414C1338.08 -142.971 1330.51 -137.845 1326.93 -130.099L1167.27 215.761C1165.21 220.216 1164.64 225.213 1165.62 230.021L1252.61 653.69C1253.84 659.713 1257.44 664.992 1262.59 668.349L1521.14 836.793C1529.51 842.247 1540.44 841.678 1548.19 835.387Z" stroke="url(#paint7_linear_17_39180)" stroke-width="4"/>
<path opacity="0.130435" d="M1500.01 837.851L1747.76 658.013C1752.75 654.396 1756.07 648.931 1756.99 642.843L1821.1 219.481C1821.84 214.612 1820.99 209.634 1818.69 205.281L1642.11 -128.465C1638.13 -135.997 1630.31 -140.709 1621.78 -140.709L1351.22 -140.709C1342.69 -140.709 1334.87 -135.997 1330.89 -128.465L1154.31 205.281C1152.01 209.634 1151.16 214.612 1151.9 219.481L1216.01 642.843C1216.93 648.931 1220.25 654.396 1225.24 658.013L1472.99 837.851C1481.05 843.7 1491.95 843.7 1500.01 837.851Z" stroke="url(#paint8_linear_17_39180)" stroke-width="4"/>
<path opacity="0.144928" d="M1452.31 838.914L1707.57 673.899C1712.75 670.549 1716.37 665.26 1717.62 659.22L1803.34 243.98C1804.34 239.14 1803.76 234.109 1801.67 229.63L1643.88 -109.422C1640.3 -117.134 1632.74 -122.231 1624.24 -122.672L1355.73 -136.632C1347.23 -137.074 1339.18 -132.788 1334.8 -125.491L1142.14 195.343C1139.6 199.581 1138.49 204.524 1138.97 209.44L1180.48 631.295C1181.08 637.432 1184.12 643.067 1188.92 646.936L1425.39 837.515C1433.12 843.741 1443.97 844.306 1452.31 838.914Z" stroke="url(#paint9_linear_17_39180)" stroke-width="4"/>
<path opacity="0.15942" d="M1405.16 838.616L1667.04 688.705C1672.4 685.634 1676.31 680.537 1677.88 674.561L1784.55 268.515C1785.81 263.719 1785.49 258.647 1783.63 254.055L1644.7 -89.2778C1641.52 -97.1483 1634.25 -102.616 1625.8 -103.497L1360.06 -131.203C1351.61 -132.084 1343.36 -128.235 1338.59 -121.193L1130.74 185.983C1127.96 190.092 1126.58 194.986 1126.81 199.937L1146.05 619.111C1146.33 625.28 1149.08 631.071 1153.69 635.182L1378.42 835.827C1385.8 842.414 1396.57 843.537 1405.16 838.616Z" stroke="url(#paint10_linear_17_39180)" stroke-width="4"/>
<path opacity="0.173913" d="M1358.64 837L1626.25 702.424C1631.78 699.642 1635.96 694.752 1637.85 688.859L1764.73 293.03C1766.25 288.292 1766.19 283.193 1764.57 278.499L1644.52 -68.0957C1641.74 -76.1039 1634.78 -81.9257 1626.4 -83.2425L1364.16 -124.445C1355.77 -125.762 1347.34 -122.359 1342.21 -115.593L1120.06 177.237C1117.05 181.204 1115.41 186.035 1115.38 191.007L1112.74 606.356C1112.7 612.54 1115.16 618.473 1119.55 622.815L1332.14 832.837C1339.15 839.764 1349.81 841.439 1358.64 837Z" stroke="url(#paint11_linear_17_39180)" stroke-width="4"/>
<path opacity="0.188406" d="M1312.81 834.115L1585.25 715.054C1590.93 712.569 1595.38 707.902 1597.58 702.108L1743.89 317.47C1745.67 312.804 1745.88 307.693 1744.49 302.907L1643.28 -45.94C1640.92 -54.0647 1634.28 -60.2244 1625.99 -61.9721L1367.93 -116.384C1359.64 -118.132 1351.05 -115.185 1345.56 -108.714L1110.07 169.138C1106.84 172.95 1104.93 177.704 1104.64 182.683L1080.59 593.098C1080.23 599.28 1082.38 605.339 1086.55 609.903L1286.62 828.594C1293.25 835.842 1303.78 838.062 1312.81 834.115Z" stroke="url(#paint12_linear_17_39180)" stroke-width="4"/>
<path opacity="0.202899" d="M1267.72 830.012L1544.1 726.594C1549.92 724.415 1554.62 719.984 1557.14 714.306L1722.04 341.78C1724.07 337.2 1724.55 332.089 1723.4 327.225L1640.94 -22.8787C1639 -31.0985 1632.7 -37.5786 1624.52 -39.7515L1371.32 -107.053C1363.15 -109.226 1354.42 -106.741 1348.6 -100.582L1100.72 161.716C1097.28 165.361 1095.11 170.023 1094.56 174.995L1049.61 579.404C1048.92 585.567 1050.76 591.737 1054.7 596.511L1241.92 823.153C1248.16 830.702 1258.52 833.456 1267.72 830.012Z" stroke="url(#paint13_linear_17_39180)" stroke-width="4"/>
<path opacity="0.217391" d="M1223.46 824.743L1502.86 737.046C1508.81 735.181 1513.75 731.001 1516.56 725.456L1699.19 365.906C1701.47 361.425 1702.22 356.33 1701.32 351.399L1637.46 1.01904C1635.95 -7.27411 1630 -14.0565 1621.96 -16.6477L1374.26 -96.4835C1366.22 -99.0747 1357.39 -97.0577 1351.25 -91.2297L1091.98 155C1088.33 158.465 1085.92 163.022 1085.1 167.974L1019.81 565.343C1018.8 571.471 1020.32 577.734 1024.02 582.708L1198.11 816.572C1203.93 824.401 1214.1 827.678 1223.46 824.743Z" stroke="url(#paint14_linear_17_39180)" stroke-width="4"/>
<path opacity="0.231884" d="M1180.05 818.365L1461.6 746.419C1467.65 744.874 1472.82 740.957 1475.93 735.561L1675.37 389.795C1677.89 385.427 1678.9 380.361 1678.25 375.376L1632.8 25.6817C1631.72 17.3369 1626.14 10.2712 1618.25 7.26979L1376.69 -84.7145C1368.81 -87.7158 1359.89 -86.1713 1353.46 -80.6898L1083.8 149.016C1079.96 152.291 1077.29 156.728 1076.22 161.646L991.201 550.983C989.874 557.058 991.073 563.4 994.523 568.561L1155.22 808.91C1160.63 816.997 1170.58 820.786 1180.05 818.365Z" stroke="url(#paint15_linear_17_39180)" stroke-width="4"/>
<path opacity="0.246377" d="M1137.57 810.939L1420.37 754.72C1426.5 753.501 1431.88 749.86 1435.28 744.629L1650.59 413.396C1653.34 409.154 1654.62 404.132 1654.23 399.105L1626.94 51.0371C1626.29 42.6623 1621.08 35.3328 1613.38 31.9304L1378.55 -71.7857C1370.84 -75.1882 1361.87 -74.1194 1355.16 -68.9996L1076.14 143.787C1072.11 146.86 1069.21 151.164 1067.88 156.035L963.798 536.394C962.155 542.4 963.028 548.803 966.216 554.138L1113.33 800.23C1118.3 808.553 1128.01 812.841 1137.57 810.939Z" stroke="url(#paint16_linear_17_39180)" stroke-width="4"/>
<path opacity="0.26087" d="M1096.06 802.525L1379.23 761.963C1385.42 761.075 1391 757.721 1394.68 752.671L1624.87 436.658C1627.86 432.556 1629.4 427.591 1629.26 422.536L1619.84 77.0113C1619.61 68.6283 1614.8 61.0552 1607.3 57.2619L1379.77 -57.7409C1372.27 -61.5342 1363.26 -60.943 1356.29 -56.1991L1068.96 139.335C1064.76 142.195 1061.62 146.354 1060.03 151.164L937.601 521.644C935.645 527.564 936.188 534.012 939.107 539.508L1072.46 790.597C1077 799.133 1086.44 803.905 1096.06 802.525Z" stroke="url(#paint17_linear_17_39180)" stroke-width="4"/>
<path opacity="0.275362" d="M1055.57 793.188L1338.22 768.162C1344.47 767.609 1350.23 764.553 1354.18 759.698L1598.24 459.535C1601.45 455.583 1603.26 450.69 1603.38 445.619L1611.48 103.529C1611.68 95.1597 1607.28 87.3639 1599.99 83.1909L1380.31 -42.6265C1373.02 -46.7995 1364.01 -46.6863 1356.81 -42.3312L1062.21 135.677C1057.84 138.315 1054.47 142.315 1052.63 147.051L912.608 506.8C910.343 512.619 910.556 519.096 913.196 524.739L1032.68 780.078C1036.76 788.805 1045.91 794.043 1055.57 793.188Z" stroke="url(#paint18_linear_17_39180)" stroke-width="4"/>
<path opacity="0.289855" d="M1016.13 782.992L1297.42 773.337C1303.7 773.122 1309.62 770.374 1313.83 765.728L1570.73 481.978C1574.16 478.19 1576.22 473.381 1576.6 468.307L1601.85 130.516C1602.47 122.181 1598.48 114.184 1591.43 109.644L1380.11 -26.4911C1373.06 -31.0314 1364.07 -31.3953 1356.65 -27.4409L1055.84 132.83C1051.32 135.237 1047.73 139.066 1045.64 143.714L888.815 491.932C886.247 497.634 886.127 504.122 888.482 509.899L994.003 768.741C997.629 777.635 1006.46 783.324 1016.13 782.992Z" stroke="url(#paint19_linear_17_39180)" stroke-width="4"/>
<path opacity="0.304348" d="M977.774 772.006L1256.86 777.509C1263.16 777.633 1269.23 775.202 1273.68 770.779L1542.36 503.943C1546 500.331 1548.32 495.62 1548.96 490.556L1590.92 157.895C1591.96 149.617 1588.4 141.44 1581.61 136.545L1379.13 -9.38588C1372.33 -14.2803 1363.39 -15.1191 1355.78 -11.5759L1049.81 130.807C1045.15 132.974 1041.35 136.621 1039.01 141.169L866.213 477.107C863.349 482.675 862.896 489.158 864.958 495.054L956.479 756.658C959.64 765.695 968.132 771.815 977.774 772.006Z" stroke="url(#paint20_linear_17_39180)" stroke-width="4"/>
<path opacity="0.318841" d="M940.544 760.296L1216.61 780.701C1222.9 781.165 1229.1 779.06 1233.79 774.872L1513.18 525.388C1517.02 521.962 1519.59 517.361 1520.49 512.32L1578.69 185.591C1580.15 177.39 1577.01 169.056 1570.5 163.821L1377.31 8.63553C1370.8 3.40132 1361.93 2.09133 1354.14 5.21391L1044.07 129.619C1039.29 131.538 1035.29 134.991 1032.71 139.426L844.79 462.389C841.636 467.809 840.85 474.27 842.615 480.272L920.132 743.899C922.824 753.055 930.956 759.588 940.544 760.296Z" stroke="url(#paint21_linear_17_39180)" stroke-width="4"/>
<path opacity="0.333333" d="M904.466 747.934L1176.71 782.939C1182.97 783.744 1189.29 781.97 1194.2 778.031L1483.21 546.27C1487.24 543.042 1490.05 538.565 1491.21 533.56L1565.15 213.527C1567.02 205.425 1564.33 196.955 1558.1 191.397L1374.63 27.5178C1368.4 21.959 1359.63 20.1829 1351.7 22.8767L1038.58 129.275C1033.68 130.939 1029.49 134.187 1026.67 138.496L824.529 447.845C821.093 453.102 819.976 459.524 821.438 465.616L884.989 730.537C887.208 739.788 894.959 746.712 904.466 747.934Z" stroke="url(#paint22_linear_17_39180)" stroke-width="4"/>
<path opacity="0.347826" d="M869.562 734.99L1137.2 784.252C1143.42 785.396 1149.84 783.962 1154.96 780.283L1452.49 566.553C1456.7 563.531 1459.76 559.191 1461.17 554.234L1550.31 241.629C1552.58 233.645 1550.33 225.063 1544.41 219.196L1371.03 47.2035C1365.12 41.3363 1356.47 39.1006 1348.42 41.3589L1033.29 129.78C1028.29 131.182 1023.91 134.214 1020.87 138.387L805.412 433.537C801.703 438.617 800.257 444.984 801.41 451.151L851.07 716.646C852.814 725.968 860.165 733.261 869.562 734.99Z" stroke="url(#paint23_linear_17_39180)" stroke-width="4"/>
<path opacity="0.362319" d="M835.852 721.535L1098.14 784.671C1104.3 786.153 1110.79 785.062 1116.11 781.654L1421.07 586.198C1425.44 583.394 1428.73 579.202 1430.4 574.306L1534.15 269.82C1536.83 261.975 1535.02 253.305 1529.43 247.146L1366.49 67.6343C1360.9 61.4758 1352.4 58.7882 1344.25 60.6056L1028.15 131.138C1023.06 132.272 1018.52 135.079 1015.25 139.103L787.414 419.528C783.442 424.417 781.669 430.712 782.511 436.94L818.392 702.3C819.659 711.667 826.593 719.306 835.852 721.535Z" stroke="url(#paint24_linear_17_39180)" stroke-width="4"/>
<path opacity="0.376812" d="M803.35 707.64L1059.56 784.23C1065.64 786.046 1072.19 785.303 1077.69 782.177L1388.97 605.172C1393.5 602.594 1397.02 598.563 1398.94 593.74L1516.71 298.027C1519.77 290.34 1518.41 281.604 1513.16 275.172L1360.98 88.75C1355.73 82.318 1347.4 79.1879 1339.18 80.5603L1023.11 133.349C1017.95 134.21 1013.25 136.783 1009.76 140.646L770.51 405.877C766.284 410.563 764.189 416.77 764.716 423.042L786.968 687.572C787.757 696.961 794.257 704.922 803.35 707.64Z" stroke="url(#paint25_linear_17_39180)" stroke-width="4"/>
<path opacity="0.391304" d="M772.068 693.377L1021.51 782.962C1027.49 785.109 1034.09 784.718 1039.75 781.882L1356.24 623.444C1360.92 621.101 1364.66 617.242 1366.83 612.504L1497.97 326.177C1501.41 318.666 1500.51 309.889 1495.61 303.203L1354.47 110.489C1349.57 103.803 1341.44 100.24 1333.17 101.165L1018.13 136.412C1012.92 136.995 1008.07 139.325 1004.37 143.017L754.671 392.644C750.201 397.112 747.788 403.216 747.999 409.518L756.804 672.537C757.119 681.922 763.167 690.181 772.068 693.377Z" stroke="url(#paint26_linear_17_39180)" stroke-width="4"/>
<path opacity="0.405797" d="M742.013 678.818L984.031 780.906C989.891 783.378 996.511 783.341 1002.33 780.805L1322.93 640.984C1327.75 638.883 1331.69 635.207 1334.11 630.567L1477.97 354.197C1481.78 346.882 1481.33 338.087 1476.8 331.165L1346.93 132.79C1342.4 125.868 1334.48 121.886 1326.2 122.361L1013.17 140.322C1007.91 140.624 1002.92 142.702 999.03 146.213L739.863 379.884C735.161 384.124 732.434 390.108 732.327 396.424L727.905 657.269C727.747 666.626 733.331 675.156 742.013 678.818Z" stroke="url(#paint27_linear_17_39180)" stroke-width="4"/>
<path opacity="0.42029" d="M713.187 664.034L947.149 778.1C952.874 780.892 959.498 781.21 965.45 778.981L1289.09 657.765C1294.03 655.915 1298.17 652.433 1300.83 647.901L1456.72 382.018C1460.88 374.916 1460.89 366.127 1456.74 358.99L1338.36 155.59C1334.2 148.453 1326.53 144.064 1318.24 144.09L1008.17 145.074C1002.89 145.09 997.777 146.91 993.692 150.229L726.05 367.652C721.128 371.65 718.094 377.5 717.668 383.814L700.27 641.841C699.642 651.146 704.749 659.921 713.187 664.034Z" stroke="url(#paint28_linear_17_39180)" stroke-width="4"/>
<path opacity="0.434783" d="M685.588 649.095L910.903 774.584C916.476 777.688 923.083 778.363 929.155 776.448L1254.74 673.764C1259.79 672.171 1264.13 668.893 1267.03 664.482L1434.24 409.57C1438.75 402.699 1439.21 393.939 1435.44 386.608L1328.72 178.826C1324.95 171.495 1317.54 166.713 1309.29 166.292L1003.1 150.657C997.806 150.387 992.583 151.941 988.315 155.058L713.194 355.998C708.064 359.745 704.73 365.445 703.986 371.742L673.892 626.325C672.801 635.554 677.42 644.546 685.588 649.095Z" stroke="url(#paint29_linear_17_39180)" stroke-width="4"/>
<path opacity="0.449275" d="M659.211 634.072L875.322 770.4C880.726 773.809 887.299 774.839 893.474 773.245L1219.96 688.959C1225.1 687.63 1229.62 684.566 1232.75 680.287L1410.57 436.788C1415.41 430.163 1416.32 421.456 1412.95 413.953L1318.01 202.434C1314.65 194.931 1307.52 189.772 1299.32 188.906L997.913 157.063C992.617 156.503 987.297 157.785 982.856 160.691L701.254 344.972C695.928 348.457 692.301 353.992 691.239 360.257L648.763 610.793C647.215 619.922 651.336 629.104 659.211 634.072Z" stroke="url(#paint30_linear_17_39180)" stroke-width="4"/>
<path opacity="0.463768" d="M634.046 619.032L840.437 765.591C845.654 769.296 852.173 770.68 858.435 769.412L1184.77 703.332C1190 702.272 1194.7 699.432 1198.05 695.296L1385.74 463.607C1390.89 457.245 1392.24 448.614 1389.28 440.959L1306.23 226.352C1303.27 218.698 1296.44 213.18 1288.32 211.873L992.56 164.276C987.281 163.426 981.877 164.431 977.273 167.117L690.185 334.62C684.677 337.834 680.766 343.19 679.388 349.406L624.869 595.316C622.873 604.322 626.488 613.665 634.046 619.032Z" stroke="url(#paint31_linear_17_39180)" stroke-width="4"/>
<path opacity="0.478261" d="M610.081 604.044L806.272 760.201C811.286 764.192 817.733 765.927 824.064 764.99L1149.23 716.866C1154.54 716.081 1159.39 713.473 1162.96 709.491L1359.77 489.965C1365.22 483.879 1367.01 475.347 1364.46 467.565L1293.37 250.516C1290.82 242.733 1284.32 236.873 1276.3 235.131L987.004 172.281C981.757 171.141 976.282 171.863 971.526 174.321L679.942 324.986C674.265 327.919 670.078 333.082 668.386 339.235L602.193 579.962C599.757 588.822 602.86 598.297 610.081 604.044Z" stroke="url(#paint32_linear_17_39180)" stroke-width="4"/>
<path opacity="0.492754" d="M587.298 589.174L772.85 754.274C777.645 758.541 784 760.625 790.384 760.022L1113.4 729.55C1118.76 729.044 1123.77 726.676 1127.55 722.859L1332.71 515.802C1338.45 510.007 1340.67 501.598 1338.54 493.709L1279.42 274.864C1277.29 266.976 1271.13 260.793 1263.24 258.623L981.203 181.062C976.004 179.632 970.473 180.066 965.574 182.288L670.477 316.11C664.645 318.754 660.192 323.711 658.189 329.785L580.713 564.798C577.848 573.49 580.435 583.068 587.298 589.174Z" stroke="url(#paint33_linear_17_39180)" stroke-width="4"/>
<path opacity="0.507246" d="M565.675 574.486L740.191 747.857C744.753 752.388 750.997 754.815 757.416 754.551L1077.31 741.371C1082.72 741.149 1087.87 739.03 1091.85 735.388L1304.6 541.061C1310.61 535.571 1313.25 527.305 1311.54 519.334L1264.4 299.333C1262.69 291.362 1256.89 284.877 1249.15 282.287L975.119 190.598C969.983 188.879 964.41 189.022 959.379 190.999L661.738 308.029C655.766 310.377 651.056 315.114 648.747 321.094L560.405 549.889C557.122 558.392 559.19 568.043 565.675 574.486Z" stroke="url(#paint34_linear_17_39180)" stroke-width="4"/>
<path opacity="0.521739" d="M545.19 560.043L708.314 740.995C712.626 745.779 718.742 748.544 725.178 748.62L1041.02 752.324C1046.46 752.388 1051.74 750.526 1055.92 747.068L1275.48 565.689C1281.74 560.516 1284.8 552.416 1283.52 544.386L1248.31 323.864C1247.02 315.834 1241.6 309.067 1234.03 306.066L968.714 200.868C963.656 198.862 958.056 198.71 952.905 200.437L653.673 300.779C647.577 302.823 642.621 307.328 640.01 313.199L541.239 535.3C537.552 543.592 539.1 553.287 545.19 560.043Z" stroke="url(#paint35_linear_17_39180)" stroke-width="4"/>
<path opacity="0.536232" d="M525.814 545.905L677.232 733.737C681.281 738.759 687.25 741.856 693.685 742.273L1004.58 762.403C1010.03 762.756 1015.43 761.158 1019.81 757.894L1245.4 589.635C1251.9 584.789 1255.36 576.877 1254.5 568.811L1231.15 348.395C1230.3 340.329 1225.26 333.302 1217.88 329.902L961.952 211.848C956.988 209.559 951.374 209.109 946.114 210.579L646.23 294.39C640.023 296.124 634.834 300.385 631.926 306.133L523.185 521.089C519.107 529.151 520.135 538.861 525.814 545.905Z" stroke="url(#paint36_linear_17_39180)" stroke-width="4"/>
<path opacity="0.550725" d="M507.517 532.131L646.957 726.128C650.73 731.376 656.534 734.797 662.951 735.555L968.042 771.606C973.496 772.251 978.999 770.923 983.556 767.863L1214.42 612.851C1221.13 608.343 1224.98 600.638 1224.55 592.56L1212.95 372.868C1212.52 364.79 1207.88 357.526 1200.73 353.739L954.797 223.515C949.943 220.944 944.33 220.194 938.974 221.401L639.353 288.889C633.051 290.309 627.639 294.313 624.441 299.924L506.206 507.316C501.752 515.128 502.264 524.824 507.517 532.131Z" stroke="url(#paint37_linear_17_39180)" stroke-width="4"/>
<path opacity="0.565217" d="M490.264 518.777L617.499 718.216C620.982 723.674 626.604 727.412 632.984 728.511L931.451 779.934C936.892 780.872 942.488 779.821 947.218 776.974L1182.58 635.293C1189.49 631.132 1193.71 623.655 1193.71 615.587V397.226C1193.71 389.159 1189.49 381.682 1182.58 377.521L947.218 235.84C942.488 232.993 936.892 231.942 931.451 232.879L632.984 284.302C626.604 285.402 620.982 289.139 617.499 294.598L490.264 494.037C485.451 501.581 485.451 511.233 490.264 518.777Z" stroke="url(#paint38_linear_17_39180)" stroke-width="4"/>
<path opacity="0.57971" d="M474.02 505.897L588.865 710.048C592.045 715.701 597.467 719.747 603.794 721.186L894.858 787.392C900.271 788.623 905.948 787.855 910.842 785.228L1149.93 656.919C1157.02 653.114 1161.61 645.883 1162.04 637.85L1173.47 421.414C1173.9 413.381 1170.09 405.714 1163.44 401.194L939.182 248.796C934.592 245.677 929.027 244.324 923.514 244.987L627.068 280.65C620.624 281.425 614.806 284.886 611.047 290.179L475.319 481.303C470.163 488.563 469.657 498.142 474.02 505.897Z" stroke="url(#paint39_linear_17_39180)" stroke-width="4"/>
<path opacity="0.594203" d="M458.743 493.541L561.056 701.671C563.924 707.504 569.129 711.846 575.384 713.623L858.312 793.984C863.682 795.51 869.427 795.029 874.475 792.632L1116.54 677.692C1123.79 674.25 1128.73 667.284 1129.57 659.309L1152.24 445.376C1153.09 437.401 1149.71 429.569 1143.34 424.706L930.66 262.353C926.225 258.968 920.706 257.313 915.134 257.697L621.545 277.95C615.055 278.398 609.053 281.571 605.025 286.685L461.326 469.166C455.846 476.125 454.841 485.604 458.743 493.541Z" stroke="url(#paint40_linear_17_39180)" stroke-width="4"/>
<path opacity="0.608696" d="M444.393 481.758L534.076 693.132C536.619 699.128 541.592 703.756 547.758 705.867L821.862 799.721C827.174 801.54 832.974 801.352 838.166 799.192L1082.46 697.579C1089.85 694.505 1095.12 687.821 1096.38 679.927L1130.05 469.063C1131.31 461.168 1128.38 453.195 1122.31 448.006L921.624 276.481C917.359 272.835 911.902 270.878 906.283 270.98L616.358 276.216C609.836 276.334 603.665 279.212 599.378 284.134L448.239 457.672C442.453 464.315 440.96 473.666 444.393 481.758Z" stroke="url(#paint41_linear_17_39180)" stroke-width="4"/>
<path opacity="0.623188" d="M430.925 470.593L507.921 684.478C510.131 690.618 514.855 695.521 520.914 697.963L785.554 804.614C790.794 806.725 796.634 806.834 801.96 804.919L1047.75 716.549C1055.26 713.849 1060.85 707.463 1062.52 699.671L1106.92 492.423C1108.59 484.631 1106.11 476.543 1100.35 471.046L912.049 291.146C907.968 287.248 902.588 284.991 896.936 284.805L611.445 275.46C604.91 275.246 598.583 277.819 594.046 282.536L436.009 446.864C429.937 453.178 427.966 462.375 430.925 470.593Z" stroke="url(#paint42_linear_17_39180)" stroke-width="4"/>
<path opacity="0.637681" d="M418.291 460.088L482.587 675.753C484.456 682.02 488.916 687.186 494.85 689.953L749.436 808.676C754.588 811.079 760.455 811.488 765.905 809.824L1012.47 734.576C1020.08 732.253 1025.96 726.181 1028.04 718.514L1082.9 515.409C1084.97 507.742 1082.93 499.564 1077.51 493.778L901.91 306.316C898.028 302.173 892.741 299.617 887.069 299.142L606.749 275.687C600.216 275.141 593.749 277.401 588.972 281.902L424.586 436.783C418.248 442.755 415.812 451.772 418.291 460.088Z" stroke="url(#paint43_linear_17_39180)" stroke-width="4"/>
<path opacity="0.652174" d="M406.445 450.282L458.069 667.003C459.588 673.379 463.77 678.792 469.561 681.879L713.553 811.926C718.601 814.616 724.481 815.329 730.044 813.924L976.685 751.636C984.375 749.694 990.538 743.95 993.002 736.428L1058 537.976C1060.47 530.455 1058.88 522.214 1053.81 516.159L891.185 321.957C887.517 317.577 882.338 314.725 876.66 313.958L602.209 276.903C595.695 276.023 589.103 277.965 584.097 282.237L413.918 427.467C407.334 433.086 404.447 441.898 406.445 450.282Z" stroke="url(#paint44_linear_17_39180)" stroke-width="4"/>
<path opacity="0.666667" d="M395.334 441.212L434.356 658.271C435.518 664.737 439.408 670.385 445.04 673.784L677.948 814.381C682.878 817.357 688.757 818.376 694.421 817.236L940.455 767.712C948.204 766.152 954.627 760.748 957.473 753.393L1032.28 560.082C1035.12 552.728 1034 544.448 1029.29 538.145L879.856 338.032C876.415 333.425 871.36 330.28 865.689 329.22L597.767 279.107C591.288 277.895 584.588 279.51 579.363 283.543L403.949 418.948C397.141 424.204 393.819 432.787 395.334 441.212Z" stroke="url(#paint45_linear_17_39180)" stroke-width="4"/>
<path opacity="0.681159" d="M384.907 432.91L411.437 649.601C412.237 656.137 415.821 662.004 421.277 665.709L642.665 816.064C647.461 819.321 653.324 820.648 659.078 819.778L903.843 782.787C911.632 781.61 918.295 776.559 921.512 769.391L1005.76 581.686C1008.98 574.519 1008.3 566.227 1003.97 559.697L867.903 354.507C864.705 349.683 859.788 346.249 854.139 344.893L593.363 282.295C586.936 280.753 580.143 282.036 574.712 285.82L394.625 411.257C387.614 416.141 383.874 424.473 384.907 432.91Z" stroke="url(#paint46_linear_17_39180)" stroke-width="4"/>
<path opacity="0.695652" d="M375.11 425.404L389.298 641.034C389.731 647.62 392.997 653.69 398.26 657.692L607.745 816.997C612.392 820.531 618.224 822.167 624.055 821.574L866.914 796.852C874.723 796.057 881.604 791.368 885.18 784.407L978.486 602.751C982.062 595.79 981.84 587.511 977.899 580.777L855.312 371.344C852.369 366.315 847.606 362.597 841.993 360.944L588.939 286.462C582.582 284.591 575.712 285.539 570.086 289.062L385.889 404.42C378.696 408.924 374.556 416.984 375.11 425.404Z" stroke="url(#paint47_linear_17_39180)" stroke-width="4"/>
<path opacity="0.710145" d="M365.889 418.722L367.923 632.611C367.986 639.227 370.921 645.484 375.975 649.774L573.228 817.208C577.71 821.013 583.496 822.959 589.394 822.647L829.73 809.897C837.539 809.483 844.618 805.167 848.539 798.43L950.501 623.243C954.422 616.506 954.65 608.266 951.107 601.351L842.07 388.507C839.394 383.284 834.802 379.287 829.239 377.338L584.438 291.598C578.167 289.402 571.237 290.008 565.429 293.262L377.682 398.459C370.331 402.579 365.809 410.347 365.889 418.722Z" stroke="url(#paint48_linear_17_39180)" stroke-width="4"/>
<path opacity="0.724638" d="M357.188 412.885L347.293 624.37C346.983 630.997 349.578 637.423 354.406 641.99L539.151 816.723C543.454 820.793 549.179 823.05 555.13 823.023L792.355 821.921C800.144 821.884 807.4 817.948 811.652 811.454L921.847 643.129C926.098 636.634 926.772 628.457 923.637 621.385L828.164 405.957C825.769 400.553 821.362 396.283 815.863 394.039L579.804 297.689C573.634 295.171 566.661 295.434 560.685 298.41L369.947 393.395C362.458 397.125 357.576 404.582 357.188 412.885Z" stroke="url(#paint49_linear_17_39180)" stroke-width="4"/>
<path opacity="0.73913" d="M348.951 407.912L327.389 616.351C326.705 622.966 328.948 629.543 333.536 634.376L505.551 815.574C509.66 819.902 515.308 822.468 521.299 822.73L754.853 832.922C762.602 833.26 770.013 829.711 774.58 823.476L892.568 662.38C897.135 656.145 898.247 648.056 895.529 640.85L813.585 423.657C811.483 418.085 807.277 413.55 801.858 411.011L574.981 304.719C568.93 301.884 561.93 301.801 555.799 304.491L362.624 389.243C355.021 392.579 349.799 399.708 348.951 407.912Z" stroke="url(#paint50_linear_17_39180)" stroke-width="4"/>
<path opacity="0.753623" d="M341.12 403.819L308.188 608.587C307.13 615.171 309.012 621.881 313.344 626.968L472.462 813.791C476.361 818.369 481.917 821.244 487.937 821.798L717.285 842.905C724.975 843.613 732.519 840.457 737.385 834.496L862.711 680.971C867.577 675.01 869.121 667.034 866.824 659.719L798.328 441.569C796.53 435.844 792.54 431.051 787.214 428.219L569.915 312.668C563.998 309.522 556.991 309.091 550.719 311.487L355.654 386.014C347.958 388.955 342.419 395.741 341.12 403.819Z" stroke="url(#paint51_linear_17_39180)" stroke-width="4"/>
<path opacity="0.768116" d="M333.638 400.618L289.667 601.114C288.234 607.645 289.748 614.469 293.81 619.797L439.916 811.408C443.591 816.228 449.04 819.409 455.073 820.259L679.713 851.878C687.326 852.949 694.981 850.19 700.129 844.518L832.322 698.88C837.47 693.208 839.437 685.368 837.566 677.969L782.385 459.655C780.903 453.792 777.144 448.749 771.927 445.627L564.554 321.515C558.788 318.064 551.789 317.284 545.391 319.38L348.978 383.718C341.212 386.262 335.377 392.69 333.638 400.618Z" stroke="url(#paint52_linear_17_39180)" stroke-width="4"/>
<path opacity="0.782609" d="M326.448 398.316L271.798 593.964C269.995 600.422 271.132 607.34 274.91 612.895L407.943 808.46C411.38 813.512 416.705 816.998 422.74 818.145L642.198 859.851C649.716 861.28 657.459 858.92 662.872 853.551L801.448 716.085C806.861 710.715 809.24 703.034 807.8 695.577L765.756 477.877C764.6 471.891 761.087 466.608 755.993 463.199L558.848 331.233C553.248 327.484 546.275 326.356 539.765 328.146L342.536 382.358C334.721 384.506 328.614 390.563 326.448 398.316Z" stroke="url(#paint53_linear_17_39180)" stroke-width="4"/>
<path opacity="0.797101" d="M319.493 396.919L254.557 587.168C252.385 593.532 253.139 600.523 256.621 606.29L376.571 804.983C379.755 810.258 384.941 814.044 390.964 815.49L604.8 866.839C612.204 868.617 620.014 866.659 625.673 861.605L770.139 732.569C775.797 727.515 778.577 720.016 777.568 712.524L748.44 496.197C747.619 490.104 744.366 484.592 739.411 480.899L552.748 341.794C547.329 337.756 540.399 336.281 533.793 337.758L336.269 381.935C328.426 383.689 322.072 389.365 319.493 396.919Z" stroke="url(#paint54_linear_17_39180)" stroke-width="4"/>
<path opacity="0.811594" d="M312.715 396.428L237.913 580.755C235.377 587.004 235.744 594.047 238.917 600.012L345.825 801.017C348.743 806.502 353.774 810.584 359.771 812.331L567.576 872.861C574.85 874.98 582.704 873.423 588.59 868.695L738.441 748.321C744.326 743.593 747.494 736.296 746.918 728.797L730.437 514.577C729.962 508.395 726.982 502.665 722.18 498.693L546.207 353.168C540.985 348.85 534.116 347.029 527.427 348.19L330.119 382.448C322.27 383.811 315.691 389.095 312.715 396.428Z" stroke="url(#paint55_linear_17_39180)" stroke-width="4"/>
<path opacity="0.826087" d="M306.059 396.841L221.837 574.751C218.943 580.864 218.919 587.939 221.77 594.085L315.729 796.598C318.367 802.283 323.228 806.657 329.185 808.704L530.582 877.937C537.711 880.388 545.587 879.231 551.68 874.84L706.404 763.327C712.497 758.936 716.039 751.863 715.893 744.38L711.752 532.981C711.629 526.728 708.938 520.791 704.303 516.545L539.18 365.321C534.169 360.732 527.378 358.569 520.624 359.41L324.028 383.89C316.194 384.866 309.415 389.751 306.059 396.841Z" stroke="url(#paint56_linear_17_39180)" stroke-width="4"/>
<path opacity="0.84058" d="M299.467 398.153L206.298 569.181C203.053 575.138 202.634 582.223 205.153 588.533L286.304 791.769C288.648 797.64 293.323 802.299 299.226 804.648L493.875 882.093C500.841 884.864 508.717 884.107 514.998 880.061L674.077 777.582C680.357 773.536 684.259 766.706 684.54 759.266L692.39 551.371C692.628 545.066 690.238 538.935 685.785 534.422L531.627 378.218C526.841 373.369 520.145 370.866 513.34 371.384L317.939 386.252C310.14 386.846 303.186 391.326 299.467 398.153Z" stroke="url(#paint57_linear_17_39180)" stroke-width="4"/>
<path opacity="0.855072" d="M292.885 400.354L191.263 564.068C187.676 569.848 186.86 576.922 189.038 583.378L257.568 786.569C259.606 792.613 264.079 797.552 269.915 800.201L457.506 885.355C464.294 888.437 472.15 888.074 478.598 884.381L641.508 791.079C647.956 787.386 652.201 780.818 652.905 773.446L672.358 569.712C672.963 563.374 670.888 557.062 666.631 552.289L523.506 391.821C518.958 386.722 512.375 383.886 505.535 384.078L311.798 389.522C304.052 389.74 296.948 393.809 292.885 400.354Z" stroke="url(#paint58_linear_17_39180)" stroke-width="4"/>
<path opacity="0.869565" d="M286.26 403.433L176.701 559.432C172.779 565.016 171.567 572.056 173.394 578.641L229.536 781.04C231.257 787.243 235.513 792.454 241.267 795.402L421.525 887.755C428.121 891.135 435.936 891.162 442.531 887.829L608.746 803.817C615.34 800.484 619.911 794.196 621.032 786.916L651.666 587.969C652.644 581.618 650.897 575.14 646.849 570.113L514.781 406.089C510.485 400.753 504.031 397.588 497.172 397.453L305.549 393.684C297.877 393.533 290.647 397.188 286.26 403.433Z" stroke="url(#paint59_linear_17_39180)" stroke-width="4"/>
<path opacity="0.884058" d="M279.539 407.376L162.577 555.292C158.332 560.66 156.723 567.645 158.19 574.338L202.223 775.225C203.614 781.573 207.638 787.047 213.297 790.293L385.982 889.325C392.372 892.991 400.125 893.403 406.845 890.435L575.839 815.797C582.559 812.829 587.437 806.838 588.968 799.674L630.326 606.108C631.681 599.764 630.273 593.134 626.449 587.862L505.418 420.982C501.385 415.421 495.076 411.933 488.214 411.471L299.14 398.719C291.56 398.208 284.228 401.446 279.539 407.376Z" stroke="url(#paint60_linear_17_39180)" stroke-width="4"/>
<path opacity="0.898551" d="M272.671 412.163L148.856 551.663C144.299 556.797 142.296 563.703 143.397 570.487L175.639 769.168C176.69 775.643 180.466 781.372 186.016 784.913L350.921 890.102C357.093 894.04 364.764 894.83 371.589 892.231L542.833 827.024C549.658 824.425 554.825 818.746 556.757 811.723L608.35 624.094C610.087 617.778 609.028 611.014 605.441 605.504L495.384 436.455C491.626 430.683 485.48 426.88 478.63 426.089L292.519 404.605C285.049 403.742 277.641 406.563 272.671 412.163Z" stroke="url(#paint61_linear_17_39180)" stroke-width="4"/>
<path opacity="0.913043" d="M265.607 417.774L135.504 548.559C130.648 553.441 128.254 560.247 128.982 567.101L149.792 762.91C150.492 769.496 154.007 775.472 159.434 779.304L316.386 890.124C322.329 894.32 329.898 895.48 336.806 893.254L509.775 837.503C516.684 835.276 522.12 829.924 524.442 823.065L585.753 641.895C587.874 635.629 587.176 628.746 583.84 623.01L484.652 452.463C481.18 446.493 475.21 442.383 468.389 441.265L285.639 411.317C278.295 410.114 270.835 412.518 265.607 417.774Z" stroke="url(#paint62_linear_17_39180)" stroke-width="4"/>
<path opacity="0.927536" d="M258.299 424.185L122.486 545.993C117.344 550.605 114.564 557.288 114.915 564.191L124.689 756.496C125.028 763.176 128.267 769.387 133.558 773.508L282.417 889.432C288.119 893.872 295.568 895.393 302.539 893.54L476.711 847.245C483.682 845.392 489.367 840.38 492.067 833.706L562.552 659.48C565.058 653.287 564.732 646.302 561.659 640.349L473.194 468.96C470.018 462.808 464.242 458.399 457.465 456.955L278.451 418.828C271.251 417.294 263.761 419.285 258.299 424.185Z" stroke="url(#paint63_linear_17_39180)" stroke-width="4"/>
<path opacity="0.942029" d="M250.701 431.369L109.766 543.974C104.354 548.298 101.192 554.837 101.162 561.769L100.332 749.969C100.302 756.724 103.25 763.16 108.392 767.565L249.053 888.067C254.503 892.737 261.814 894.609 268.826 893.13L443.685 856.261C450.697 854.782 456.609 850.122 459.674 843.657L538.765 676.82C541.656 670.721 541.71 663.652 538.913 657.493L460.989 485.898C458.119 479.578 452.55 474.88 445.832 473.114L270.911 427.108C263.869 425.256 256.375 426.836 250.701 431.369Z" stroke="url(#paint64_linear_17_39180)" stroke-width="4"/>
<path opacity="0.956522" d="M242.771 439.299L97.3088 542.509C91.6419 546.53 88.1065 552.902 87.6917 559.841L76.7223 743.372C76.3151 750.185 78.959 756.833 83.9383 761.518L216.326 886.076C221.517 890.959 228.673 893.171 235.705 892.067L410.74 864.566C417.772 863.461 423.888 859.164 427.304 852.928L514.411 693.884C517.687 687.902 518.13 680.769 515.621 674.414L448.016 503.229C445.46 496.756 440.112 491.78 433.47 489.693L262.976 436.124C256.107 433.966 248.631 435.141 242.771 439.299Z" stroke="url(#paint65_linear_17_39180)" stroke-width="4"/>
<path opacity="0.971014" d="M234.467 447.942L85.0788 541.604C79.1741 545.306 75.273 551.489 74.4724 558.414L53.8581 736.748C53.0662 743.599 55.3928 750.448 60.1964 755.407L184.27 883.503C189.193 888.585 196.176 891.126 203.207 890.393L377.917 872.177C384.948 871.444 391.246 867.519 394.996 861.532L489.511 710.646C493.17 704.805 494.01 697.625 491.8 691.088L434.259 520.902C432.024 514.293 426.912 509.05 420.361 506.647L254.606 445.842C247.924 443.391 240.489 444.166 234.467 447.942Z" stroke="url(#paint66_linear_17_39180)" stroke-width="4"/>
<path opacity="0.985507" d="M225.751 457.265L73.041 541.261C66.9163 544.63 62.6592 550.603 61.4725 557.492L31.7354 730.141C30.5523 737.009 32.5489 744.046 37.164 749.274L152.913 880.398C157.56 885.662 164.355 888.519 171.365 888.154L345.256 879.114C352.266 878.75 358.723 875.204 362.79 869.487L464.088 727.08C468.126 721.402 469.371 714.196 467.47 707.488L419.704 538.869C417.797 532.14 412.934 526.641 406.488 523.926L245.764 456.224C239.282 453.494 231.909 453.877 225.751 457.265Z" stroke="url(#paint67_linear_17_39180)" stroke-width="4"/>
<path d="M216.586 467.232L61.1599 541.481C54.8341 544.503 50.2319 550.246 48.6599 557.078L10.3471 723.592C8.76736 730.457 10.4215 737.669 14.8358 743.16L122.279 876.809C126.644 882.239 133.237 885.398 140.204 885.398H312.796C319.764 885.398 326.356 882.239 330.721 876.809L438.164 743.16C442.578 737.669 444.233 730.457 442.653 723.592L404.34 557.078C402.768 550.246 398.166 544.503 391.84 541.481L236.414 467.232C230.144 464.237 222.856 464.237 216.586 467.232Z" stroke="url(#paint68_linear_17_39180)" stroke-width="4"/>
<defs>
<linearGradient id="paint0_linear_17_39180" x1="1884.92" y1="793.61" x2="1413.19" y2="-274.466" gradientUnits="userSpaceOnUse">
<stop stop-color="#F759FF"/>
<stop offset="1" stop-color="#FDCA40"/>
</linearGradient>
<linearGradient id="paint1_linear_17_39180" x1="1834.72" y1="806.19" x2="1423.01" y2="-275.035" gradientUnits="userSpaceOnUse">
<stop stop-color="#F759FF"/>
<stop offset="1" stop-color="#FDCA40"/>
</linearGradient>
<linearGradient id="paint2_linear_17_39180" x1="1784.47" y1="817.159" x2="1432.8" y2="-273.923" gradientUnits="userSpaceOnUse">
<stop stop-color="#F759FF"/>
<stop offset="1" stop-color="#FDCA40"/>
</linearGradient>
<linearGradient id="paint3_linear_17_39180" x1="1734.24" y1="826.529" x2="1442.47" y2="-271.155" gradientUnits="userSpaceOnUse">
<stop stop-color="#F759FF"/>
<stop offset="1" stop-color="#FDCA40"/>
</linearGradient>
<linearGradient id="paint4_linear_17_39180" x1="1684.12" y1="834.315" x2="1451.96" y2="-266.762" gradientUnits="userSpaceOnUse">
<stop stop-color="#F759FF"/>
<stop offset="1" stop-color="#FDCA40"/>
</linearGradient>
<linearGradient id="paint5_linear_17_39180" x1="1634.21" y1="840.541" x2="1461.18" y2="-260.774" gradientUnits="userSpaceOnUse">
<stop stop-color="#F759FF"/>
<stop offset="1" stop-color="#FDCA40"/>
</linearGradient>
<linearGradient id="paint6_linear_17_39180" x1="1584.58" y1="845.231" x2="1470.05" y2="-253.227" gradientUnits="userSpaceOnUse">
<stop stop-color="#F759FF"/>
<stop offset="1" stop-color="#FDCA40"/>
</linearGradient>
<linearGradient id="paint7_linear_17_39180" x1="1535.32" y1="848.415" x2="1478.52" y2="-244.157" gradientUnits="userSpaceOnUse">
<stop stop-color="#F759FF"/>
<stop offset="1" stop-color="#FDCA40"/>
</linearGradient>
<linearGradient id="paint8_linear_17_39180" x1="1486.5" y1="850.13" x2="1486.5" y2="-233.602" gradientUnits="userSpaceOnUse">
<stop stop-color="#F759FF"/>
<stop offset="1" stop-color="#FDCA40"/>
</linearGradient>
<linearGradient id="paint9_linear_17_39180" x1="1438.21" y1="850.413" x2="1493.94" y2="-221.603" gradientUnits="userSpaceOnUse">
<stop stop-color="#F759FF"/>
<stop offset="1" stop-color="#FDCA40"/>
</linearGradient>
<linearGradient id="paint10_linear_17_39180" x1="1390.51" y1="849.307" x2="1500.77" y2="-208.201" gradientUnits="userSpaceOnUse">
<stop stop-color="#F759FF"/>
<stop offset="1" stop-color="#FDCA40"/>
</linearGradient>
<linearGradient id="paint11_linear_17_39180" x1="1343.48" y1="846.859" x2="1506.93" y2="-193.441" gradientUnits="userSpaceOnUse">
<stop stop-color="#F759FF"/>
<stop offset="1" stop-color="#FDCA40"/>
</linearGradient>
<linearGradient id="paint12_linear_17_39180" x1="1297.19" y1="843.118" x2="1512.37" y2="-177.368" gradientUnits="userSpaceOnUse">
<stop stop-color="#F759FF"/>
<stop offset="1" stop-color="#FDCA40"/>
</linearGradient>
<linearGradient id="paint13_linear_17_39180" x1="1251.7" y1="838.138" x2="1517.02" y2="-160.028" gradientUnits="userSpaceOnUse">
<stop stop-color="#F759FF"/>
<stop offset="1" stop-color="#FDCA40"/>
</linearGradient>
<linearGradient id="paint14_linear_17_39180" x1="1207.07" y1="831.976" x2="1520.83" y2="-141.469" gradientUnits="userSpaceOnUse">
<stop stop-color="#F759FF"/>
<stop offset="1" stop-color="#FDCA40"/>
</linearGradient>
<linearGradient id="paint15_linear_17_39180" x1="1163.36" y1="824.69" x2="1523.75" y2="-121.743" gradientUnits="userSpaceOnUse">
<stop stop-color="#F759FF"/>
<stop offset="1" stop-color="#FDCA40"/>
</linearGradient>
<linearGradient id="paint16_linear_17_39180" x1="1120.62" y1="816.343" x2="1525.73" y2="-100.901" gradientUnits="userSpaceOnUse">
<stop stop-color="#F759FF"/>
<stop offset="1" stop-color="#FDCA40"/>
</linearGradient>
<linearGradient id="paint17_linear_17_39180" x1="1078.9" y1="806.998" x2="1526.72" y2="-78.9983" gradientUnits="userSpaceOnUse">
<stop stop-color="#F759FF"/>
<stop offset="1" stop-color="#FDCA40"/>
</linearGradient>
<linearGradient id="paint18_linear_17_39180" x1="1038.25" y1="796.722" x2="1526.68" y2="-56.0905" gradientUnits="userSpaceOnUse">
<stop stop-color="#F759FF"/>
<stop offset="1" stop-color="#FDCA40"/>
</linearGradient>
<linearGradient id="paint19_linear_17_39180" x1="998.703" y1="785.584" x2="1525.54" y2="-32.2362" gradientUnits="userSpaceOnUse">
<stop stop-color="#F759FF"/>
<stop offset="1" stop-color="#FDCA40"/>
</linearGradient>
<linearGradient id="paint20_linear_17_39180" x1="960.298" y1="773.654" x2="1523.29" y2="-7.49644" gradientUnits="userSpaceOnUse">
<stop stop-color="#F759FF"/>
<stop offset="1" stop-color="#FDCA40"/>
</linearGradient>
<linearGradient id="paint21_linear_17_39180" x1="923.069" y1="761.003" x2="1519.87" y2="18.0651" gradientUnits="userSpaceOnUse">
<stop stop-color="#F759FF"/>
<stop offset="1" stop-color="#FDCA40"/>
</linearGradient>
<linearGradient id="paint22_linear_17_39180" x1="887.042" y1="747.703" x2="1515.24" y2="44.3827" gradientUnits="userSpaceOnUse">
<stop stop-color="#F759FF"/>
<stop offset="1" stop-color="#FDCA40"/>
</linearGradient>
<linearGradient id="paint23_linear_17_39180" x1="852.241" y1="733.828" x2="1509.37" y2="71.3877" gradientUnits="userSpaceOnUse">
<stop stop-color="#F759FF"/>
<stop offset="1" stop-color="#FDCA40"/>
</linearGradient>
<linearGradient id="paint24_linear_17_39180" x1="818.686" y1="719.452" x2="1502.23" y2="99.0095" gradientUnits="userSpaceOnUse">
<stop stop-color="#F759FF"/>
<stop offset="1" stop-color="#FDCA40"/>
</linearGradient>
<linearGradient id="paint25_linear_17_39180" x1="786.39" y1="704.65" x2="1493.8" y2="127.174" gradientUnits="userSpaceOnUse">
<stop stop-color="#F759FF"/>
<stop offset="1" stop-color="#FDCA40"/>
</linearGradient>
<linearGradient id="paint26_linear_17_39180" x1="755.364" y1="689.496" x2="1484.04" y2="155.807" gradientUnits="userSpaceOnUse">
<stop stop-color="#F759FF"/>
<stop offset="1" stop-color="#FDCA40"/>
</linearGradient>
<linearGradient id="paint27_linear_17_39180" x1="725.614" y1="674.064" x2="1472.93" y2="184.829" gradientUnits="userSpaceOnUse">
<stop stop-color="#F759FF"/>
<stop offset="1" stop-color="#FDCA40"/>
</linearGradient>
<linearGradient id="paint28_linear_17_39180" x1="697.14" y1="658.429" x2="1460.47" y2="214.162" gradientUnits="userSpaceOnUse">
<stop stop-color="#F759FF"/>
<stop offset="1" stop-color="#FDCA40"/>
</linearGradient>
<linearGradient id="paint29_linear_17_39180" x1="669.941" y1="642.663" x2="1446.63" y2="243.723" gradientUnits="userSpaceOnUse">
<stop stop-color="#F759FF"/>
<stop offset="1" stop-color="#FDCA40"/>
</linearGradient>
<linearGradient id="paint30_linear_17_39180" x1="644.008" y1="626.84" x2="1431.42" y2="273.431" gradientUnits="userSpaceOnUse">
<stop stop-color="#F759FF"/>
<stop offset="1" stop-color="#FDCA40"/>
</linearGradient>
<linearGradient id="paint31_linear_17_39180" x1="619.332" y1="611.03" x2="1414.82" y2="303.202" gradientUnits="userSpaceOnUse">
<stop stop-color="#F759FF"/>
<stop offset="1" stop-color="#FDCA40"/>
</linearGradient>
<linearGradient id="paint32_linear_17_39180" x1="595.895" y1="595.304" x2="1396.86" y2="332.953" gradientUnits="userSpaceOnUse">
<stop stop-color="#F759FF"/>
<stop offset="1" stop-color="#FDCA40"/>
</linearGradient>
<linearGradient id="paint33_linear_17_39180" x1="573.681" y1="579.73" x2="1377.53" y2="362.599" gradientUnits="userSpaceOnUse">
<stop stop-color="#F759FF"/>
<stop offset="1" stop-color="#FDCA40"/>
</linearGradient>
<linearGradient id="paint34_linear_17_39180" x1="552.664" y1="564.375" x2="1356.86" y2="392.057" gradientUnits="userSpaceOnUse">
<stop stop-color="#F759FF"/>
<stop offset="1" stop-color="#FDCA40"/>
</linearGradient>
<linearGradient id="paint35_linear_17_39180" x1="532.82" y1="549.304" x2="1334.86" y2="421.247" gradientUnits="userSpaceOnUse">
<stop stop-color="#F759FF"/>
<stop offset="1" stop-color="#FDCA40"/>
</linearGradient>
<linearGradient id="paint36_linear_17_39180" x1="514.117" y1="534.579" x2="1311.57" y2="450.087" gradientUnits="userSpaceOnUse">
<stop stop-color="#F759FF"/>
<stop offset="1" stop-color="#FDCA40"/>
</linearGradient>
<linearGradient id="paint37_linear_17_39180" x1="496.523" y1="520.261" x2="1287.02" y2="478.498" gradientUnits="userSpaceOnUse">
<stop stop-color="#F759FF"/>
<stop offset="1" stop-color="#FDCA40"/>
</linearGradient>
<linearGradient id="paint38_linear_17_39180" x1="480" y1="506.407" x2="1261.24" y2="506.407" gradientUnits="userSpaceOnUse">
<stop stop-color="#F759FF"/>
<stop offset="1" stop-color="#FDCA40"/>
</linearGradient>
<linearGradient id="paint39_linear_17_39180" x1="464.509" y1="493.072" x2="1234.28" y2="533.74" gradientUnits="userSpaceOnUse">
<stop stop-color="#F759FF"/>
<stop offset="1" stop-color="#FDCA40"/>
</linearGradient>
<linearGradient id="paint40_linear_17_39180" x1="450.008" y1="480.308" x2="1206.2" y2="560.429" gradientUnits="userSpaceOnUse">
<stop stop-color="#F759FF"/>
<stop offset="1" stop-color="#FDCA40"/>
</linearGradient>
<linearGradient id="paint41_linear_17_39180" x1="436.451" y1="468.165" x2="1177.03" y2="586.409" gradientUnits="userSpaceOnUse">
<stop stop-color="#F759FF"/>
<stop offset="1" stop-color="#FDCA40"/>
</linearGradient>
<linearGradient id="paint42_linear_17_39180" x1="423.79" y1="456.688" x2="1146.86" y2="611.622" gradientUnits="userSpaceOnUse">
<stop stop-color="#F759FF"/>
<stop offset="1" stop-color="#FDCA40"/>
</linearGradient>
<linearGradient id="paint43_linear_17_39180" x1="411.977" y1="445.921" x2="1115.72" y2="636.012" gradientUnits="userSpaceOnUse">
<stop stop-color="#F759FF"/>
<stop offset="1" stop-color="#FDCA40"/>
</linearGradient>
<linearGradient id="paint44_linear_17_39180" x1="400.959" y1="435.902" x2="1083.7" y2="659.53" gradientUnits="userSpaceOnUse">
<stop stop-color="#F759FF"/>
<stop offset="1" stop-color="#FDCA40"/>
</linearGradient>
<linearGradient id="paint45_linear_17_39180" x1="390.682" y1="426.669" x2="1050.85" y2="682.132" gradientUnits="userSpaceOnUse">
<stop stop-color="#F759FF"/>
<stop offset="1" stop-color="#FDCA40"/>
</linearGradient>
<linearGradient id="paint46_linear_17_39180" x1="381.092" y1="418.252" x2="1017.26" y2="703.779" gradientUnits="userSpaceOnUse">
<stop stop-color="#F759FF"/>
<stop offset="1" stop-color="#FDCA40"/>
</linearGradient>
<linearGradient id="paint47_linear_17_39180" x1="372.131" y1="410.682" x2="982.979" y2="724.439" gradientUnits="userSpaceOnUse">
<stop stop-color="#F759FF"/>
<stop offset="1" stop-color="#FDCA40"/>
</linearGradient>
<linearGradient id="paint48_linear_17_39180" x1="363.743" y1="403.984" x2="948.094" y2="744.086" gradientUnits="userSpaceOnUse">
<stop stop-color="#F759FF"/>
<stop offset="1" stop-color="#FDCA40"/>
</linearGradient>
<linearGradient id="paint49_linear_17_39180" x1="355.867" y1="398.18" x2="912.675" y2="762.697" gradientUnits="userSpaceOnUse">
<stop stop-color="#F759FF"/>
<stop offset="1" stop-color="#FDCA40"/>
</linearGradient>
<linearGradient id="paint50_linear_17_39180" x1="348.446" y1="393.287" x2="876.796" y2="780.257" gradientUnits="userSpaceOnUse">
<stop stop-color="#F759FF"/>
<stop offset="1" stop-color="#FDCA40"/>
</linearGradient>
<linearGradient id="paint51_linear_17_39180" x1="341.419" y1="389.32" x2="840.53" y2="796.757" gradientUnits="userSpaceOnUse">
<stop stop-color="#F759FF"/>
<stop offset="1" stop-color="#FDCA40"/>
</linearGradient>
<linearGradient id="paint52_linear_17_39180" x1="334.726" y1="386.289" x2="803.948" y2="812.192" gradientUnits="userSpaceOnUse">
<stop stop-color="#F759FF"/>
<stop offset="1" stop-color="#FDCA40"/>
</linearGradient>
<linearGradient id="paint53_linear_17_39180" x1="328.307" y1="384.202" x2="767.122" y2="826.562" gradientUnits="userSpaceOnUse">
<stop stop-color="#F759FF"/>
<stop offset="1" stop-color="#FDCA40"/>
</linearGradient>
<linearGradient id="paint54_linear_17_39180" x1="322.103" y1="383.061" x2="730.121" y2="839.872" gradientUnits="userSpaceOnUse">
<stop stop-color="#F759FF"/>
<stop offset="1" stop-color="#FDCA40"/>
</linearGradient>
<linearGradient id="paint55_linear_17_39180" x1="316.053" y1="382.867" x2="693.012" y2="852.133" gradientUnits="userSpaceOnUse">
<stop stop-color="#F759FF"/>
<stop offset="1" stop-color="#FDCA40"/>
</linearGradient>
<linearGradient id="paint56_linear_17_39180" x1="310.1" y1="383.616" x2="655.859" y2="863.358" gradientUnits="userSpaceOnUse">
<stop stop-color="#F759FF"/>
<stop offset="1" stop-color="#FDCA40"/>
</linearGradient>
<linearGradient id="paint57_linear_17_39180" x1="304.184" y1="385.3" x2="618.725" y2="873.564" gradientUnits="userSpaceOnUse">
<stop stop-color="#F759FF"/>
<stop offset="1" stop-color="#FDCA40"/>
</linearGradient>
<linearGradient id="paint58_linear_17_39180" x1="298.25" y1="387.908" x2="581.67" y2="882.772" gradientUnits="userSpaceOnUse">
<stop stop-color="#F759FF"/>
<stop offset="1" stop-color="#FDCA40"/>
</linearGradient>
<linearGradient id="paint59_linear_17_39180" x1="292.242" y1="391.428" x2="544.75" y2="891.008" gradientUnits="userSpaceOnUse">
<stop stop-color="#F759FF"/>
<stop offset="1" stop-color="#FDCA40"/>
</linearGradient>
<linearGradient id="paint60_linear_17_39180" x1="286.105" y1="395.84" x2="508.02" y2="898.298" gradientUnits="userSpaceOnUse">
<stop stop-color="#F759FF"/>
<stop offset="1" stop-color="#FDCA40"/>
</linearGradient>
<linearGradient id="paint61_linear_17_39180" x1="279.787" y1="401.126" x2="471.53" y2="904.671" gradientUnits="userSpaceOnUse">
<stop stop-color="#F759FF"/>
<stop offset="1" stop-color="#FDCA40"/>
</linearGradient>
<linearGradient id="paint62_linear_17_39180" x1="273.237" y1="407.262" x2="435.329" y2="910.16" gradientUnits="userSpaceOnUse">
<stop stop-color="#F759FF"/>
<stop offset="1" stop-color="#FDCA40"/>
</linearGradient>
<linearGradient id="paint63_linear_17_39180" x1="266.407" y1="414.221" x2="399.461" y2="914.797" gradientUnits="userSpaceOnUse">
<stop stop-color="#F759FF"/>
<stop offset="1" stop-color="#FDCA40"/>
</linearGradient>
<linearGradient id="paint64_linear_17_39180" x1="259.25" y1="421.976" x2="363.968" y2="918.619" gradientUnits="userSpaceOnUse">
<stop stop-color="#F759FF"/>
<stop offset="1" stop-color="#FDCA40"/>
</linearGradient>
<linearGradient id="paint65_linear_17_39180" x1="251.721" y1="430.493" x2="328.891" y2="921.661" gradientUnits="userSpaceOnUse">
<stop stop-color="#F759FF"/>
<stop offset="1" stop-color="#FDCA40"/>
</linearGradient>
<linearGradient id="paint66_linear_17_39180" x1="243.779" y1="439.741" x2="294.265" y2="923.963" gradientUnits="userSpaceOnUse">
<stop stop-color="#F759FF"/>
<stop offset="1" stop-color="#FDCA40"/>
</linearGradient>
<linearGradient id="paint67_linear_17_39180" x1="235.384" y1="449.682" x2="260.124" y2="925.563" gradientUnits="userSpaceOnUse">
<stop stop-color="#F759FF"/>
<stop offset="1" stop-color="#FDCA40"/>
</linearGradient>
<linearGradient id="paint68_linear_17_39180" x1="226.5" y1="460.28" x2="226.5" y2="926.5" gradientUnits="userSpaceOnUse">
<stop stop-color="#F759FF"/>
<stop offset="1" stop-color="#FDCA40"/>
</linearGradient>
</defs>
</svg>
