<?xml version="1.0" standalone="no"?>
<!DOCTYPE svg PUBLIC "-//W3C//DTD SVG 20010904//EN"
 "http://www.w3.org/TR/2001/REC-SVG-20010904/DTD/svg10.dtd">
<svg version="1.0" xmlns="http://www.w3.org/2000/svg"
 width="200.000000pt" height="200.000000pt" viewBox="0 0 200.000000 200.000000"
 preserveAspectRatio="xMidYMid meet">
<metadata>
Created by potrace 1.14, written by Peter Selinger 2001-2017
</metadata>
<g transform="translate(0.000000,200.000000) scale(0.100000,-0.100000)"
fill="#000000" stroke="none">
<path d="M1068 1604 c-2 -1 -27 -5 -55 -9 -213 -27 -415 -152 -491 -305 -22
-44 -27 -69 -27 -125 1 -119 61 -203 178 -247 62 -24 207 -35 260 -20 l39 11
-18 -27 c-93 -146 -204 -267 -312 -341 l-62 -42 -66 21 c-96 29 -110 32 -209
35 -137 6 -200 -23 -193 -90 2 -21 12 -35 38 -50 49 -28 250 -29 361 -1 76 19
78 19 155 0 54 -13 114 -19 190 -19 107 0 112 1 185 37 40 20 103 63 139 94
165 145 190 169 190 186 0 10 -3 18 -7 18 -3 0 -74 -51 -157 -114 -162 -122
-210 -150 -271 -162 -47 -9 -148 -8 -225 2 -30 4 -58 7 -62 6 -5 -1 -8 1 -8 6
0 4 26 18 57 31 118 52 238 161 368 337 80 107 84 111 146 133 353 128 663
377 677 545 4 48 2 55 -23 74 -31 25 -93 29 -160 11 -166 -43 -409 -255 -646
-565 -39 -51 -53 -61 -90 -70 -40 -9 -172 -10 -209 -1 -77 19 -109 35 -148 75
-33 35 -45 69 -44 131 2 115 95 229 246 300 111 53 201 74 366 84 30 2 35 6
38 30 l3 28 -75 -2 c-42 -1 -77 -3 -78 -5z m752 -87 c0 -64 -147 -222 -301
-323 -84 -56 -324 -184 -343 -184 -4 0 9 24 30 53 198 272 370 430 518 476 68
21 96 15 96 -22z m-1430 -1028 c19 -4 53 -10 74 -13 47 -8 59 -16 25 -17 -13
0 -33 -2 -44 -5 -11 -2 -71 -5 -133 -5 -92 -1 -117 2 -130 14 -13 14 -13 17
-1 21 8 2 21 7 29 10 21 7 138 4 180 -5z"/>
</g>
</svg>
